<svg width="64" height="64" viewBox="0 0 64 64" fill="none" xmlns="http://www.w3.org/2000/svg">
<path d="M32 2C46.9117 2 59 14.0883 59 29V62H5V29C5 14.0883 17.0883 2 32 2Z" fill="#6E7378"/>
<path d="M32 48V56" stroke="#6B4F2A" stroke-width="5" stroke-linecap="square" stroke-linejoin="round"/>
<path d="M23.5174 44C21.6945 44.0041 19.9186 43.4218 18.4519 42.3391C16.9852 41.2564 15.9054 39.7307 15.372 37.9872C14.8386 36.2438 14.8798 34.375 15.4895 32.6568C16.0993 30.9385 17.2453 29.4619 18.7583 28.445C17.8255 27.2792 17.2651 25.8595 17.15 24.3708C17.035 22.882 17.3706 21.3931 18.1133 20.0978C18.856 18.8025 19.9712 17.7607 21.314 17.1081C22.6568 16.4555 24.1648 16.2223 25.642 16.4387V16.375C25.642 14.6842 26.3135 13.0627 27.5088 11.8672C28.7041 10.6716 30.3253 10 32.0157 10C33.7062 10 35.3274 10.6716 36.5227 11.8672C37.718 13.0627 38.3895 14.6842 38.3895 16.375V16.46C39.8666 16.2435 41.3747 16.4768 42.7175 17.1294C44.0602 17.782 45.1755 18.8237 45.9182 20.1191C46.6608 21.4144 46.9965 22.9033 46.8815 24.392C46.7664 25.8808 46.206 27.3004 45.2732 28.4662C46.7767 29.4866 47.9137 30.9621 48.5173 32.6762C49.121 34.3903 49.1594 36.2528 48.6271 37.9903C48.0947 39.7279 47.0196 41.2491 45.5595 42.3307C44.0993 43.4123 42.3311 43.9973 40.5141 44H23.5174Z" fill="#356F3A" stroke="#356F3A" stroke-width="5.33333" stroke-linecap="round" stroke-linejoin="round"/>
</svg>
